<svg width="30" height="30" viewBox="0 0 30 30" fill="none" xmlns="http://www.w3.org/2000/svg">
<circle cx="15" cy="15" r="15" fill="#DD71C6"/>
<path d="M14.9981 12.6657C13.7128 12.6657 12.6638 13.7146 12.6638 15C12.6638 16.2854 13.7128 17.3343 14.9981 17.3343C16.2835 17.3343 17.3324 16.2854 17.3324 15C17.3324 13.7146 16.2835 12.6657 14.9981 12.6657ZM21.9992 15C21.9992 14.0333 22.008 13.0754 21.9537 12.1105C21.8994 10.9898 21.6437 9.99512 20.8242 9.17556C20.0029 8.35426 19.01 8.10034 17.8893 8.04605C16.9226 7.99176 15.9648 8.00052 14.9999 8.00052C14.0332 8.00052 13.0754 7.99176 12.1105 8.04605C10.9897 8.10034 9.99508 8.35601 9.17554 9.17556C8.35425 9.99687 8.10034 10.9898 8.04605 12.1105C7.99177 13.0772 8.00052 14.0351 8.00052 15C8.00052 15.9649 7.99177 16.9246 8.04605 17.8895C8.10034 19.0102 8.356 20.0049 9.17554 20.8244C9.99683 21.6457 10.9897 21.8997 12.1105 21.9539C13.0771 22.0082 14.035 21.9995 14.9999 21.9995C15.9665 21.9995 16.9244 22.0082 17.8893 21.9539C19.01 21.8997 20.0047 21.644 20.8242 20.8244C21.6455 20.0031 21.8994 19.0102 21.9537 17.8895C22.0097 16.9246 21.9992 15.9667 21.9992 15ZM14.9981 18.5917C13.0106 18.5917 11.4065 16.9876 11.4065 15C11.4065 13.0124 13.0106 11.4083 14.9981 11.4083C16.9857 11.4083 18.5897 13.0124 18.5897 15C18.5897 16.9876 16.9857 18.5917 14.9981 18.5917ZM18.7368 12.1C18.2728 12.1 17.898 11.7253 17.898 11.2612C17.898 10.7972 18.2728 10.4224 18.7368 10.4224C19.2009 10.4224 19.5756 10.7972 19.5756 11.2612C19.5758 11.3714 19.5542 11.4806 19.5121 11.5824C19.47 11.6842 19.4082 11.7767 19.3303 11.8547C19.2523 11.9326 19.1598 11.9944 19.058 12.0365C18.9562 12.0786 18.847 12.1002 18.7368 12.1Z" fill="white"/>
</svg>
