<svg width="22" height="28" viewBox="0 0 22 28" fill="none" xmlns="http://www.w3.org/2000/svg">
<g filter="url(#filter0_d_278_310)">
<path d="M18 7C18 6.08075 17.8189 5.1705 17.4672 4.32122C17.1154 3.47194 16.5998 2.70026 15.9497 2.05025C15.2997 1.40024 14.5281 0.884626 13.6788 0.532843C12.8295 0.18106 11.9193 0 11 0C10.0807 0 9.17049 0.18106 8.32122 0.532843C7.47194 0.884626 6.70026 1.40024 6.05025 2.05025C5.40024 2.70026 4.88463 3.47194 4.53284 4.32122C4.18106 5.1705 4 6.08075 4 7C4 8.387 4.41 9.677 5.105 10.765H5.097C7.457 14.46 11 20 11 20L16.903 10.765H16.896C17.6164 9.64137 17.9995 8.33474 18 7ZM11 10C10.2044 10 9.44129 9.68393 8.87868 9.12132C8.31607 8.55871 8 7.79565 8 7C8 6.20435 8.31607 5.44129 8.87868 4.87868C9.44129 4.31607 10.2044 4 11 4C11.7956 4 12.5587 4.31607 13.1213 4.87868C13.6839 5.44129 14 6.20435 14 7C14 7.79565 13.6839 8.55871 13.1213 9.12132C12.5587 9.68393 11.7956 10 11 10Z" fill="#DD71C6"/>
</g>
<defs>
<filter id="filter0_d_278_310" x="0" y="0" width="22" height="28" filterUnits="userSpaceOnUse" color-interpolation-filters="sRGB">
<feFlood flood-opacity="0" result="BackgroundImageFix"/>
<feColorMatrix in="SourceAlpha" type="matrix" values="0 0 0 0 0 0 0 0 0 0 0 0 0 0 0 0 0 0 127 0" result="hardAlpha"/>
<feOffset dy="4"/>
<feGaussianBlur stdDeviation="2"/>
<feComposite in2="hardAlpha" operator="out"/>
<feColorMatrix type="matrix" values="0 0 0 0 0 0 0 0 0 0 0 0 0 0 0 0 0 0 0.25 0"/>
<feBlend mode="normal" in2="BackgroundImageFix" result="effect1_dropShadow_278_310"/>
<feBlend mode="normal" in="SourceGraphic" in2="effect1_dropShadow_278_310" result="shape"/>
</filter>
</defs>
</svg>
