<svg width="21" height="20" viewBox="0 0 21 20" fill="none" xmlns="http://www.w3.org/2000/svg">
<path d="M13.3396 14.2139L15.0624 12.491C15.2945 12.2618 15.5881 12.1049 15.9076 12.0394C16.2271 11.9739 16.5587 12.0025 16.8623 12.1218L18.962 12.9602C19.2688 13.0847 19.5318 13.2972 19.7179 13.5709C19.9041 13.8447 20.005 14.1674 20.0081 14.4985V18.3442C20.0063 18.5694 19.9589 18.7919 19.8689 18.9983C19.7789 19.2047 19.648 19.3908 19.4841 19.5453C19.3203 19.6998 19.1269 19.8195 18.9155 19.8973C18.7042 19.9751 18.4793 20.0093 18.2544 19.9979C3.54063 19.0826 0.57172 6.62239 0.0102431 1.85368C-0.0158211 1.6195 0.00799306 1.38246 0.0801187 1.15814C0.152244 0.933831 0.271047 0.727331 0.428711 0.55223C0.586374 0.377128 0.779326 0.237394 0.994872 0.142219C1.21042 0.0470438 1.44367 -0.00141458 1.67929 3.14343e-05H5.39427C5.72578 0.0010127 6.04942 0.101149 6.32355 0.287561C6.59769 0.473973 6.80978 0.738135 6.93257 1.04607L7.77094 3.14584C7.89419 3.44817 7.92564 3.78011 7.86135 4.10021C7.79706 4.4203 7.63987 4.71436 7.40944 4.94565L5.68655 6.66854C5.68655 6.66854 6.67875 13.3832 13.3396 14.2139Z" fill="#DD71C6"/>
</svg>
