<svg width="30" height="30" viewBox="0 0 30 30" fill="none" xmlns="http://www.w3.org/2000/svg">
<circle cx="15" cy="15" r="15" fill="#DD71C6"/>
<path d="M22 10.3466C21.4794 10.575 20.9246 10.7264 20.3462 10.7999C20.9412 10.4446 21.3954 9.88637 21.6089 9.2135C21.0541 9.54425 20.4416 9.77788 19.7889 9.90825C19.2621 9.34738 18.5114 9 17.6924 9C16.1034 9 14.8241 10.2898 14.8241 11.8709C14.8241 12.0984 14.8434 12.3171 14.8906 12.5254C12.5045 12.409 10.3931 11.2654 8.97475 9.52325C8.72712 9.95288 8.58188 10.4446 8.58188 10.974C8.58188 11.968 9.09375 12.8491 9.85675 13.3593C9.39562 13.3505 8.94325 13.2166 8.56 13.0058C8.56 13.0145 8.56 13.0259 8.56 13.0373C8.56 14.432 9.55487 15.5905 10.8595 15.8574C10.6259 15.9212 10.3712 15.9519 10.107 15.9519C9.92325 15.9519 9.73775 15.9414 9.56362 15.9029C9.9355 17.0395 10.9908 17.8751 12.2455 17.9023C11.269 18.6661 10.0291 19.1264 8.68688 19.1264C8.4515 19.1264 8.22575 19.1159 8 19.087C9.27137 19.9069 10.7781 20.375 12.403 20.375C17.6845 20.375 20.572 16 20.572 12.2077C20.572 12.0809 20.5676 11.9584 20.5615 11.8368C21.1311 11.4325 21.6097 10.9276 22 10.3466Z" fill="white"/>
</svg>
